<svg xmlns="http://www.w3.org/2000/svg" viewBox="0 0 140.78 46.72"><defs><style>.cls-1{fill:#134b95;}</style></defs><title>Fichier 1</title><g id="Calque_2" data-name="Calque 2"><g id="Calque_1-2" data-name="Calque 1"><path class="cls-1" d="M31.46,29.81q4.16-.07,4.16-4.3h4.3q0,8.74-8.88,8.59a8.54,8.54,0,0,1-8.3-8.59v-4.3a8.58,8.58,0,0,1,8.52-8.59q7.66,0,8.56,6.7a15.72,15.72,0,0,1,.11,1.89v2.15H27v2.09A4.36,4.36,0,0,0,31.46,29.81Zm-.14-12.89q-3.22,0-4,2.41h8Q34.55,16.92,31.33,16.92Z"/><path class="cls-1" d="M68.58,34.1,62.13,12.62h4.3l4.3,14.33L75,12.62h4.3l4.3,14.33,4.3-14.33h4.3L85.77,34.1h-4.3l-4.3-14.33L72.88,34.1Z"/><path class="cls-1" d="M106.78,13.35v-.73h4.3V34.1h-4.3v-.73a11.6,11.6,0,0,1-4.59.73,8.54,8.54,0,0,1-8.3-8.59v-4.3a8.54,8.54,0,0,1,8.3-8.59A11.6,11.6,0,0,1,106.78,13.35Zm0,7.86q0-4.23-4.16-4.3a4.36,4.36,0,0,0-4.43,4.35v4.18a4.36,4.36,0,0,0,4.43,4.35q4.16-.07,4.16-4.3Z"/><path class="cls-1" d="M134.46,12.66h-1.88v0h-2.69a2.28,2.28,0,0,0-2.15,1.51L122.83,28l-5.35-15.34L114.53,4h0a6,6,0,0,0-5.63-4H2.34A2.34,2.34,0,0,0,0,2.34V34.1H4.3v-.73a11.6,11.6,0,0,0,4.59.73,8.54,8.54,0,0,0,8.3-8.59v-4.3a8.54,8.54,0,0,0-8.3-8.59,11.6,11.6,0,0,0-4.59.73V5A.93.93,0,0,1,5.23,4H108.66a2.26,2.26,0,0,1,2.14,1.53l6.77,19.77h0l3,8.8L118,41.45a1.88,1.88,0,0,1-1.77,1.25H48.57a.9.9,0,0,1-.9-.9V33.37a11.6,11.6,0,0,0,4.59.73,8.54,8.54,0,0,0,8.3-8.59v-4.3a8.54,8.54,0,0,0-8.3-8.59,11.6,11.6,0,0,0-4.59.73v-.73h-4.3V44.46a2.27,2.27,0,0,0,2.27,2.27h71.95a4,4,0,0,0,3.8-2.68l.48-1.34,1.5-4.21,7.43-20.82a1.49,1.49,0,0,1,1.4-1h2.34Zm-126,4.26a4.35,4.35,0,0,1,4.42,4.35v4.19a4.35,4.35,0,0,1-4.42,4.35q-4.15-.06-4.17-4.25V21.19Q4.32,17,8.47,16.92Zm39.2,4.3q0-4.23,4.16-4.3a4.36,4.36,0,0,1,4.43,4.35v4.19a4.35,4.35,0,0,1-4.42,4.35q-4.15-.06-4.17-4.27Z"/><polygon class="cls-1" points="140.78 14.59 134.16 21.2 134.16 7.98 140.78 14.59"/></g></g></svg>